<!DOCTYPE svg PUBLIC "-//W3C//DTD SVG 1.1//EN" "http://www.w3.org/Graphics/SVG/1.1/DTD/svg11.dtd">
<!-- Uploaded to: SVG Repo, www.svgrepo.com, Transformed by: SVG Repo Mixer Tools -->
<svg fill="#a93d3d" version="1.1" id="Layer_1" xmlns:x="&amp;ns_extend;" xmlns:i="&amp;ns_ai;" xmlns:graph="&amp;ns_graphs;" xmlns="http://www.w3.org/2000/svg" xmlns:xlink="http://www.w3.org/1999/xlink" width="800px" height="800px" viewBox="0 0 24 24" enable-background="new 0 0 24 24" xml:space="preserve" stroke="#a93d3d">
<g id="SVGRepo_bgCarrier" stroke-width="0"/>
<g id="SVGRepo_tracerCarrier" stroke-linecap="round" stroke-linejoin="round"/>
<g id="SVGRepo_iconCarrier"> <metadata> <sfw> <slices> </slices> <slicesourcebounds width="505" height="984" bottomleftorigin="true" x="0" y="-984"> </slicesourcebounds> </sfw> </metadata> <g> <g> <g> <path d="M23,13H9c-0.6,0-1-0.4-1-1v-1c0-2.2,1.8-4,4-4h8c2.2,0,4,1.8,4,4v1C24,12.6,23.6,13,23,13z M10,11h12c0-1.1-0.9-2-2-2h-8 C10.9,9,10,9.9,10,11z"/> </g> </g> <g> <g> <path d="M23,17H1c-0.6,0-1-0.4-1-1V4c0-0.6,0.4-1,1-1s1,0.4,1,1v11h20v-3c0-0.6,0.4-1,1-1s1,0.4,1,1v4C24,16.6,23.6,17,23,17z"/> </g> </g> <g> <g> <path d="M19,13H2c-0.6,0-1-0.4-1-1s0.4-1,1-1h17c0.6,0,1,0.4,1,1S19.6,13,19,13z"/> </g> </g> <g> <g> <path d="M9,13H1c-0.6,0-1-0.4-1-1v-1c0-2.2,1.8-4,4-4h2c2.2,0,4,1.8,4,4v1C10,12.6,9.6,13,9,13z M2,11h6c0-1.1-0.9-2-2-2H4 C2.9,9,2,9.9,2,11z"/> </g> </g> </g> <g> <g> <path d="M23,21H1c-0.6,0-1-0.4-1-1v-4c0-0.6,0.4-1,1-1h22c0.6,0,1,0.4,1,1v4C24,20.6,23.6,21,23,21z M2,19h20v-2H2V19z"/> </g> </g> </g>
</svg>